# xmcd
#
# Track frame offsets:
#	150
#	12657
#	25160
#	42192
#	54887
#	72170
#	85085
#	100320
#	108470
#	123525
#
# Disc length: 1861 seconds
#
# Revision: 1
# Processed by: cddbd v1.4PL0 Copyright (c) Steve Scherf et al.
# Submitted via: audiograbber 1.81.02
#
DISCID=7d07430a
DTITLE=Richard Bennett - Walking Down The Line
DYEAR=1900
DGENRE=
TTITLE0=Sounds of Winter
TTITLE1=Greensleeves
TTITLE2=Banks of the Ohio
TTITLE3=Walking Down the Line
TTITLE4=Pallet on the Floor
TTITLE5=If I Could Go Back Home Again
TTITLE6=True Love is Hard to Find
TTITLE7=Roan Mountain Rag
TTITLE8=Johnstown Flood
TTITLE9=The Rain Pours Down
EXTD=
EXTT0=
EXTT1=
EXTT2=
EXTT3=
EXTT4=
EXTT5=
EXTT6=
EXTT7=
EXTT8=
EXTT9=
PLAYORDER=
